<svg width="113" height="145" viewBox="0 0 113 145" fill="none" xmlns="http://www.w3.org/2000/svg">
<path d="M89.9998 143.116H24C11.2975 143.116 1 132.818 1 120.116V24C1 11.2974 11.2974 1 24 1H55.2285C57.3502 1 59.385 1.84286 60.8853 3.34315L82.8145 25.2723L108.778 51.2358C110.841 53.2987 112 56.0966 112 59.0139V121.116C112 133.266 102.15 143.116 89.9998 143.116Z" fill="#0E1F39" stroke="url(#paint0_linear_31_210)" stroke-width="2"/>
<path d="M111.971 60.4129H68.587C59.7505 60.4129 52.587 53.2494 52.587 44.4129V1H56.0128C57.8897 1 59.688 1.75374 61.004 3.09202L82.8087 25.2663L82.8141 25.2718L82.8196 25.2772L106.759 48.884C109.874 51.9558 111.724 56.0686 111.971 60.4129Z" fill="#0E1F39" stroke="url(#paint1_linear_31_210)" stroke-width="2"/>
<rect x="25.3839" y="76.9708" width="62.2317" height="7.36955" rx="3.68478" fill="url(#paint2_linear_31_210)"/>
<rect x="25.3839" y="94.9854" width="62.2317" height="7.36955" rx="3.68478" fill="url(#paint3_linear_31_210)"/>
<rect x="25.3839" y="113" width="62.2317" height="7.36955" rx="3.68478" fill="url(#paint4_linear_31_210)"/>
<defs>
<linearGradient id="paint0_linear_31_210" x1="113" y1="-5.2811e-06" x2="-6.62668e-05" y2="144.116" gradientUnits="userSpaceOnUse">
<stop stop-color="#6C00D0"/>
<stop offset="1" stop-color="#D000EB"/>
</linearGradient>
<linearGradient id="paint1_linear_31_210" x1="113" y1="0" x2="1.63785" y2="142.887" gradientUnits="userSpaceOnUse">
<stop stop-color="#6C00D0"/>
<stop offset="1" stop-color="#D000EB"/>
</linearGradient>
<linearGradient id="paint2_linear_31_210" x1="110.952" y1="24.2502" x2="45.2524" y2="147.62" gradientUnits="userSpaceOnUse">
<stop stop-color="#6C00D0"/>
<stop offset="1" stop-color="#D000EB"/>
</linearGradient>
<linearGradient id="paint3_linear_31_210" x1="110.952" y1="42.2647" x2="45.2524" y2="165.635" gradientUnits="userSpaceOnUse">
<stop stop-color="#6C00D0"/>
<stop offset="1" stop-color="#D000EB"/>
</linearGradient>
<linearGradient id="paint4_linear_31_210" x1="110.952" y1="60.2791" x2="45.2524" y2="183.649" gradientUnits="userSpaceOnUse">
<stop stop-color="#6C00D0"/>
<stop offset="1" stop-color="#D000EB"/>
</linearGradient>
</defs>
</svg>
