<svg width="77" height="67" viewBox="0 0 77 67" fill="none" xmlns="http://www.w3.org/2000/svg">
<path d="M37.8786 10.8996L38.1715 11.1925H38.5858H70.4435C73.2049 11.1925 75.4435 13.431 75.4435 16.1925V60.251C75.4435 63.0124 73.2049 65.251 70.4435 65.251H6.00001C3.23858 65.251 1 63.0124 1 60.251V5C1 2.79086 2.79086 1 5 1H27.9791L37.8786 10.8996Z" fill="#0E1F39" stroke="url(#paint0_linear_30_145)" stroke-width="2"/>
<path d="M34.2678 33.5396V21.1129H42.1758V33.5396H54.6026V41.4476H42.1758V53.8743H34.2678V41.4476H21.8411V33.5396H34.2678Z" fill="url(#paint1_linear_30_145)"/>
<defs>
<linearGradient id="paint0_linear_30_145" x1="76.4435" y1="10.1925" x2="6.29676e-06" y2="66.251" gradientUnits="userSpaceOnUse">
<stop stop-color="#6C00D0"/>
<stop offset="1" stop-color="#D000EB"/>
</linearGradient>
<linearGradient id="paint1_linear_30_145" x1="1.45613" y1="66.2509" x2="73.1673" y2="1.4559" gradientUnits="userSpaceOnUse">
<stop stop-color="#D000EB"/>
<stop offset="1" stop-color="#6C00D0"/>
</linearGradient>
</defs>
</svg>
