<svg width="138" height="53" viewBox="0 0 138 53" fill="none" xmlns="http://www.w3.org/2000/svg">
<path d="M4 36.7212C4 52.3439 24.9375 52.3439 24.9375 36.7212C24.9375 31.4063 24.9375 9.62223 24.9375 0" stroke="url(#paint0_linear_30_153)" stroke-width="7"/>
<mask id="path-2-inside-1_30_153" fill="white">
<ellipse cx="45.7135" cy="38.17" rx="14.3341" ry="14.3341"/>
</mask>
<path d="M39.0476 38.17C39.0476 34.4886 42.0319 31.5042 45.7135 31.5042V73.5042C65.228 73.5042 81.0476 57.6844 81.0476 38.17H39.0476ZM45.7135 31.5042C49.395 31.5042 52.3794 34.4886 52.3794 38.17H10.3794C10.3794 57.6844 26.1989 73.5042 45.7135 73.5042V31.5042ZM52.3794 38.17C52.3794 41.8514 49.395 44.8359 45.7135 44.8359V2.83588C26.1989 2.83588 10.3794 18.6556 10.3794 38.17H52.3794ZM45.7135 44.8359C42.0319 44.8359 39.0476 41.8514 39.0476 38.17H81.0476C81.0476 18.6556 65.228 2.83588 45.7135 2.83588V44.8359Z" fill="url(#paint1_linear_30_153)" mask="url(#path-2-inside-1_30_153)"/>
<mask id="path-4-inside-2_30_153" fill="white">
<ellipse cx="123.022" cy="38.17" rx="14.3341" ry="14.3341"/>
</mask>
<path d="M116.356 38.17C116.356 34.4886 119.34 31.5042 123.022 31.5042V73.5042C142.536 73.5042 158.356 57.6844 158.356 38.17H116.356ZM123.022 31.5042C126.703 31.5042 129.688 34.4886 129.688 38.17H87.6875C87.6875 57.6844 103.507 73.5042 123.022 73.5042V31.5042ZM129.688 38.17C129.688 41.8514 126.703 44.8359 123.022 44.8359V2.83588C103.507 2.83588 87.6875 18.6556 87.6875 38.17H129.688ZM123.022 44.8359C119.34 44.8359 116.356 41.8514 116.356 38.17H158.356C158.356 18.6556 142.536 2.83588 123.022 2.83588V44.8359Z" fill="url(#paint2_linear_30_153)" mask="url(#path-4-inside-2_30_153)"/>
<mask id="path-6-inside-3_30_153" fill="white">
<ellipse cx="90.1661" cy="38.17" rx="14.3341" ry="14.3341"/>
</mask>
<path d="M83.5002 38.17C83.5002 34.4886 86.4846 31.5042 90.1661 31.5042V73.5042C109.681 73.5042 125.5 57.6844 125.5 38.17H83.5002ZM90.1661 31.5042C93.8477 31.5042 96.832 34.4886 96.832 38.17H54.832C54.832 57.6844 70.6516 73.5042 90.1661 73.5042V31.5042ZM96.832 38.17C96.832 41.8514 93.8477 44.8359 90.1661 44.8359V2.83588C70.6516 2.83588 54.832 18.6556 54.832 38.17H96.832ZM90.1661 44.8359C86.4846 44.8359 83.5002 41.8514 83.5002 38.17H125.5C125.5 18.6556 109.681 2.83588 90.1661 2.83588V44.8359Z" fill="url(#paint3_linear_30_153)" mask="url(#path-6-inside-3_30_153)"/>
<rect x="52.64" y="23.8359" width="8.05285" height="28.6683" fill="url(#paint4_linear_30_153)"/>
<rect x="129.947" y="23.8359" width="8.05285" height="28.6683" fill="url(#paint5_linear_30_153)"/>
<rect x="97.0912" width="8.05285" height="52.5048" fill="url(#paint6_linear_30_153)"/>
<rect x="64.2349" y="23.8359" width="8.05285" height="28.6683" fill="url(#paint7_linear_30_153)"/>
<ellipse cx="68.4228" cy="12.8851" rx="6.44233" ry="6.44232" fill="url(#paint8_linear_30_153)"/>
<rect x="21.0719" y="23.8359" width="116.928" height="6.15" fill="#0E1218"/>
<defs>
<linearGradient id="paint0_linear_30_153" x1="144.442" y1="1.68644e-06" x2="-3.08663" y2="53.1489" gradientUnits="userSpaceOnUse">
<stop stop-color="#6C00D0"/>
<stop offset="1" stop-color="#D000EB"/>
</linearGradient>
<linearGradient id="paint1_linear_30_153" x1="135.583" y1="0.643558" x2="-1.79851" y2="52.5038" gradientUnits="userSpaceOnUse">
<stop stop-color="#6C00D0"/>
<stop offset="1" stop-color="#D000EB"/>
</linearGradient>
<linearGradient id="paint2_linear_30_153" x1="154.589" y1="-0.805965" x2="6.57713" y2="52.5038" gradientUnits="userSpaceOnUse">
<stop stop-color="#6C00D0"/>
<stop offset="1" stop-color="#D000EB"/>
</linearGradient>
<linearGradient id="paint3_linear_30_153" x1="134.779" y1="6.60269" x2="1.1014" y2="52.5038" gradientUnits="userSpaceOnUse">
<stop stop-color="#6C00D0"/>
<stop offset="1" stop-color="#D000EB"/>
</linearGradient>
<linearGradient id="paint4_linear_30_153" x1="148.952" y1="-3.06077" x2="-1.15318" y2="52.5036" gradientUnits="userSpaceOnUse">
<stop stop-color="#6C00D0"/>
<stop offset="1" stop-color="#D000EB"/>
</linearGradient>
<linearGradient id="paint5_linear_30_153" x1="158.937" y1="-1.12808" x2="5.28879" y2="52.5037" gradientUnits="userSpaceOnUse">
<stop stop-color="#6C00D0"/>
<stop offset="1" stop-color="#D000EB"/>
</linearGradient>
<linearGradient id="paint6_linear_30_153" x1="152.334" y1="-2.48707e-08" x2="23.1394" y2="-30.5303" gradientUnits="userSpaceOnUse">
<stop stop-color="#6C00D0"/>
<stop offset="1" stop-color="#D000EB"/>
</linearGradient>
<linearGradient id="paint7_linear_30_153" x1="146.374" y1="-0.483847" x2="0.629668" y2="51.6378" gradientUnits="userSpaceOnUse">
<stop stop-color="#6C00D0"/>
<stop offset="1" stop-color="#D000EB"/>
</linearGradient>
<linearGradient id="paint8_linear_30_153" x1="147.18" y1="1.44995" x2="0.617313" y2="52.5055" gradientUnits="userSpaceOnUse">
<stop stop-color="#6C00D0"/>
<stop offset="1" stop-color="#D000EB"/>
</linearGradient>
</defs>
</svg>
