<svg width="39" height="45" viewBox="0 0 39 45" fill="none" xmlns="http://www.w3.org/2000/svg">
<path d="M3.99984 0.500701L19.507 0.500022V14.5648C19.507 17.05 21.5218 19.0648 24.007 19.0648H37.8274V40.2078C37.8274 42.1407 36.2605 43.7077 34.3275 43.7078L4.00013 43.709C2.06709 43.709 0.5 42.142 0.5 40.209V4.0007C0.5 2.06776 2.0669 0.500786 3.99984 0.500701ZM37.7902 18.0648H24.007C22.0741 18.0648 20.507 16.4978 20.507 14.5648V0.541633C21.1265 0.645547 21.7028 0.940866 22.1513 1.3924L36.8475 16.1877C37.3565 16.7001 37.6844 17.359 37.7902 18.0648ZM8.53653 24.1815C8.26039 24.1815 8.03654 24.4053 8.03655 24.6815C8.03656 24.9576 8.26042 25.1815 8.53657 25.1815L29.8584 25.1807C30.1346 25.1807 30.3584 24.9569 30.3584 24.6807C30.3584 24.4046 30.1346 24.1807 29.8584 24.1807L8.53653 24.1815ZM8.53653 29.7549C8.26039 29.7549 8.03654 29.9787 8.03655 30.2549C8.03656 30.531 8.26042 30.7549 8.53657 30.7549L29.8584 30.7541C30.1346 30.7541 30.3584 30.5303 30.3584 30.2541C30.3584 29.978 30.1346 29.7541 29.8584 29.7541L8.53653 29.7549ZM8.53652 35.4817C8.26037 35.4817 8.03653 35.7056 8.03655 35.9818C8.03657 36.2579 8.26044 36.4817 8.53658 36.4817L29.8585 36.4803C30.1346 36.4802 30.3584 36.2564 30.3584 35.9802C30.3584 35.7041 30.1345 35.4802 29.8584 35.4803L8.53652 35.4817Z" stroke="url(#paint0_linear_117_66)" stroke-linecap="round" stroke-linejoin="round"/>
<defs>
<linearGradient id="paint0_linear_117_66" x1="19.1637" y1="0" x2="19.1637" y2="44.2091" gradientUnits="userSpaceOnUse">
<stop stop-color="#00FF85"/>
<stop offset="1" stop-color="#00B3FF"/>
</linearGradient>
</defs>
</svg>
