<svg width="39" height="45" viewBox="0 0 39 45" fill="none" xmlns="http://www.w3.org/2000/svg">
<path d="M36.138 16.8924C36.1928 16.9475 36.2445 17.0051 36.2932 17.0648H24.007C22.6263 17.0648 21.507 15.9455 21.507 14.5648V2.1628L36.138 16.8924ZM24.007 20.0648H36.8274V40.2078C36.8274 41.5885 35.7082 42.7077 34.3275 42.7078L4.0001 42.709C2.61935 42.709 1.5 41.5897 1.5 40.209V4.0007C1.5 2.62003 2.61922 1.50076 3.99988 1.5007L18.507 1.50007V14.5648C18.507 17.6023 20.9695 20.0648 24.007 20.0648ZM8.5365 23.1815C7.70807 23.1815 7.03652 23.8531 7.03655 24.6815C7.03658 25.5099 7.70817 26.1815 8.5366 26.1815L29.8585 26.1807C30.6869 26.1807 31.3585 25.5091 31.3584 24.6807C31.3584 23.8523 30.6868 23.1807 29.8584 23.1807L8.5365 23.1815ZM8.5365 28.7549C7.70807 28.7549 7.03652 29.4265 7.03655 30.2549C7.03658 31.0833 7.70817 31.7549 8.5366 31.7549L29.8585 31.7541C30.6869 31.7541 31.3585 31.0825 31.3584 30.2541C31.3584 29.4257 30.6868 28.7541 29.8584 28.7541L8.5365 28.7549ZM8.53645 34.4817C7.70802 34.4818 7.03649 35.1534 7.03655 35.9818C7.03661 36.8103 7.70823 37.4818 8.53665 37.4817L29.8585 37.4803C30.687 37.4802 31.3585 36.8086 31.3584 35.9802C31.3584 35.1517 30.6867 34.4802 29.8583 34.4803L8.53645 34.4817Z" stroke="url(#paint0_linear_117_66)" stroke-width="3" stroke-linecap="round" stroke-linejoin="round"/>
<defs>
<linearGradient id="paint0_linear_117_66" x1="19.1637" y1="0" x2="19.1637" y2="44.2091" gradientUnits="userSpaceOnUse">
<stop stop-color="#00FF85"/>
<stop offset="1" stop-color="#00B3FF"/>
</linearGradient>
</defs>
</svg>
